<svg xmlns="http://www.w3.org/2000/svg" xmlns:xlink="http://www.w3.org/1999/xlink" width="1920" zoomAndPan="magnify" viewBox="0 0 1440 809.999993" height="1080" preserveAspectRatio="xMidYMid meet" version="1.0"><defs><g/><clipPath id="c2dfd422bc"><path d="M 655.5 378 L 784.671875 378 L 784.671875 431.25 L 655.5 431.25 Z M 655.5 378 " clip-rule="nonzero"/></clipPath><clipPath id="e0cb31187a"><path d="M 668.25 378 L 771.75 378 C 778.792969 378 784.5 383.707031 784.5 390.75 L 784.5 418.5 C 784.5 425.542969 778.792969 431.25 771.75 431.25 L 668.25 431.25 C 661.207031 431.25 655.5 425.542969 655.5 418.5 L 655.5 390.75 C 655.5 383.707031 661.207031 378 668.25 378 Z M 668.25 378 " clip-rule="nonzero"/></clipPath><clipPath id="6e31160aa4"><path d="M 666 387.75 L 699.75 387.75 L 699.75 421.5 L 666 421.5 Z M 666 387.75 " clip-rule="nonzero"/></clipPath><clipPath id="396d3b32a7"><path d="M 674.25 387.75 L 691.5 387.75 C 696.054688 387.75 699.75 391.445312 699.75 396 L 699.75 413.25 C 699.75 417.804688 696.054688 421.5 691.5 421.5 L 674.25 421.5 C 669.695312 421.5 666 417.804688 666 413.25 L 666 396 C 666 391.445312 669.695312 387.75 674.25 387.75 Z M 674.25 387.75 " clip-rule="nonzero"/></clipPath><clipPath id="4feb349a9b"><path d="M 678.039062 395.390625 L 687.789062 395.390625 L 687.789062 414 L 678.039062 414 Z M 678.039062 395.390625 " clip-rule="nonzero"/></clipPath></defs><g clip-path="url(#c2dfd422bc)"><g clip-path="url(#e0cb31187a)"><path fill="#ffffff" d="M 655.5 378 L 784.464844 378 L 784.464844 431.25 L 655.5 431.25 Z M 655.5 378 " fill-opacity="1" fill-rule="nonzero"/></g></g><g clip-path="url(#6e31160aa4)"><g clip-path="url(#396d3b32a7)"><path fill="#ff5757" d="M 666 387.75 L 699.75 387.75 L 699.75 421.5 L 666 421.5 Z M 666 387.75 " fill-opacity="1" fill-rule="nonzero"/></g></g><g clip-path="url(#4feb349a9b)"><path fill="#ffffff" d="M 679.449219 408.105469 C 679.449219 408.105469 681.003906 409.617188 683.019531 409.617188 C 684.109375 409.617188 685.09375 409.054688 685.09375 407.882812 C 685.09375 405.464844 678.28125 405.707031 678.28125 401.375 C 678.28125 399.296875 679.832031 397.683594 682.070312 397.320312 L 682.070312 395.425781 L 683.804688 395.425781 L 683.804688 397.28125 C 686.144531 397.480469 687.351562 398.75 687.351562 398.75 L 686.226562 400.875 C 686.226562 400.875 684.855469 399.625 683.0625 399.625 C 681.855469 399.625 680.90625 400.332031 680.90625 401.339844 C 680.90625 403.738281 687.699219 403.316406 687.699219 407.835938 C 687.699219 409.890625 686.269531 411.644531 683.808594 411.96875 L 683.808594 413.824219 L 682.070312 413.824219 L 682.070312 411.957031 C 679.46875 411.65625 678.039062 410.0625 678.039062 410.0625 Z M 679.449219 408.105469 " fill-opacity="1" fill-rule="nonzero"/></g><g fill="#000000" fill-opacity="1"><g transform="translate(712.692303, 409.122617)"><g><path d="M 4.828125 -9.484375 C 5.472656 -9.484375 6.03125 -9.363281 6.5 -9.125 C 6.96875 -8.894531 7.320312 -8.5625 7.5625 -8.125 C 7.8125 -7.695312 7.9375 -7.1875 7.9375 -6.59375 C 7.9375 -6.007812 7.8125 -5.5 7.5625 -5.0625 C 7.320312 -4.632812 6.96875 -4.300781 6.5 -4.0625 C 6.03125 -3.820312 5.472656 -3.703125 4.828125 -3.703125 L 2.546875 -3.703125 L 2.546875 0 L 1.4375 0 L 1.4375 -9.484375 Z M 4.796875 -4.65625 C 6.109375 -4.65625 6.765625 -5.300781 6.765625 -6.59375 C 6.765625 -7.882812 6.109375 -8.53125 4.796875 -8.53125 L 2.546875 -8.53125 L 2.546875 -4.65625 Z M 4.796875 -4.65625 "/></g></g></g><g fill="#000000" fill-opacity="1"><g transform="translate(720.99001, 409.122617)"><g><path d="M 2.953125 0.140625 C 2.242188 0.140625 1.691406 -0.0390625 1.296875 -0.40625 C 0.898438 -0.78125 0.703125 -1.304688 0.703125 -1.984375 C 0.703125 -2.410156 0.789062 -2.769531 0.96875 -3.0625 C 1.144531 -3.351562 1.414062 -3.585938 1.78125 -3.765625 C 2.144531 -3.953125 2.625 -4.097656 3.21875 -4.203125 C 3.738281 -4.285156 4.132812 -4.378906 4.40625 -4.484375 C 4.675781 -4.597656 4.859375 -4.722656 4.953125 -4.859375 C 5.046875 -4.992188 5.09375 -5.160156 5.09375 -5.359375 C 5.09375 -5.679688 4.976562 -5.929688 4.75 -6.109375 C 4.53125 -6.285156 4.175781 -6.375 3.6875 -6.375 C 3.21875 -6.375 2.816406 -6.28125 2.484375 -6.09375 C 2.160156 -5.914062 1.859375 -5.648438 1.578125 -5.296875 L 1.453125 -5.296875 L 0.9375 -6.03125 C 1.238281 -6.414062 1.617188 -6.722656 2.078125 -6.953125 C 2.546875 -7.179688 3.082031 -7.296875 3.6875 -7.296875 C 4.53125 -7.296875 5.148438 -7.109375 5.546875 -6.734375 C 5.941406 -6.367188 6.140625 -5.859375 6.140625 -5.203125 L 6.140625 -1.40625 C 6.140625 -1.007812 6.3125 -0.8125 6.65625 -0.8125 C 6.769531 -0.8125 6.878906 -0.832031 6.984375 -0.875 L 7.0625 -0.84375 L 7.1875 -0.109375 C 7.113281 -0.0546875 7.007812 -0.0195312 6.875 0 C 6.75 0.03125 6.617188 0.046875 6.484375 0.046875 C 6.097656 0.046875 5.800781 -0.0351562 5.59375 -0.203125 C 5.394531 -0.378906 5.269531 -0.632812 5.21875 -0.96875 L 5.078125 -0.984375 C 4.867188 -0.609375 4.59375 -0.328125 4.25 -0.140625 C 3.90625 0.046875 3.472656 0.140625 2.953125 0.140625 Z M 3.1875 -0.703125 C 3.582031 -0.703125 3.925781 -0.796875 4.21875 -0.984375 C 4.507812 -1.171875 4.734375 -1.425781 4.890625 -1.75 C 5.046875 -2.082031 5.125 -2.46875 5.125 -2.90625 L 5.125 -3.8125 L 5 -3.84375 C 4.84375 -3.726562 4.648438 -3.632812 4.421875 -3.5625 C 4.191406 -3.488281 3.867188 -3.421875 3.453125 -3.359375 C 3.035156 -3.304688 2.703125 -3.21875 2.453125 -3.09375 C 2.210938 -2.976562 2.039062 -2.832031 1.9375 -2.65625 C 1.84375 -2.476562 1.796875 -2.253906 1.796875 -1.984375 C 1.796875 -1.566406 1.914062 -1.25 2.15625 -1.03125 C 2.40625 -0.8125 2.75 -0.703125 3.1875 -0.703125 Z M 3.1875 -0.703125 "/></g></g></g><g fill="#000000" fill-opacity="1"><g transform="translate(728.2562, 409.122617)"><g><path d="M 1.4375 3.03125 C 1.1875 3.03125 0.957031 3.007812 0.75 2.96875 C 0.539062 2.925781 0.363281 2.867188 0.21875 2.796875 L 0.40625 1.96875 L 0.53125 1.921875 C 0.632812 1.972656 0.757812 2.015625 0.90625 2.046875 C 1.0625 2.085938 1.222656 2.109375 1.390625 2.109375 C 1.679688 2.109375 1.921875 2.066406 2.109375 1.984375 C 2.304688 1.910156 2.472656 1.785156 2.609375 1.609375 C 2.742188 1.429688 2.867188 1.1875 2.984375 0.875 L 3.234375 0.171875 L 0.359375 -7.15625 L 1.5 -7.15625 L 3.75 -1.3125 L 3.875 -1.3125 L 6.0625 -7.15625 L 7.140625 -7.15625 L 3.9375 1.125 C 3.757812 1.582031 3.554688 1.945312 3.328125 2.21875 C 3.109375 2.5 2.84375 2.703125 2.53125 2.828125 C 2.226562 2.960938 1.863281 3.03125 1.4375 3.03125 Z M 1.4375 3.03125 "/></g></g></g><g fill="#000000" fill-opacity="1"><g transform="translate(735.801389, 409.122617)"><g/></g></g><g fill="#000000" fill-opacity="1"><g transform="translate(739.058211, 409.122617)"><g><path d="M 4.890625 0.140625 C 3.722656 0.140625 2.84375 -0.15625 2.25 -0.75 C 1.65625 -1.34375 1.359375 -2.21875 1.359375 -3.375 L 1.359375 -9.484375 L 2.46875 -9.484375 L 2.46875 -3.390625 C 2.46875 -2.554688 2.664062 -1.929688 3.0625 -1.515625 C 3.457031 -1.097656 4.066406 -0.890625 4.890625 -0.890625 C 6.503906 -0.890625 7.3125 -1.722656 7.3125 -3.390625 L 7.3125 -9.484375 L 8.421875 -9.484375 L 8.421875 -3.375 C 8.421875 -2.21875 8.125 -1.34375 7.53125 -0.75 C 6.9375 -0.15625 6.054688 0.140625 4.890625 0.140625 Z M 4.890625 0.140625 "/></g></g></g><g fill="#000000" fill-opacity="1"><g transform="translate(748.835167, 409.122617)"><g><path d="M 4.140625 0.140625 C 3.546875 0.140625 3.007812 0.0625 2.53125 -0.09375 C 2.0625 -0.257812 1.664062 -0.472656 1.34375 -0.734375 C 1.03125 -1.003906 0.800781 -1.296875 0.65625 -1.609375 L 1.265625 -2.359375 L 1.421875 -2.359375 C 2.003906 -1.367188 2.910156 -0.875 4.140625 -0.875 C 4.859375 -0.875 5.390625 -1.019531 5.734375 -1.3125 C 6.085938 -1.613281 6.265625 -2.03125 6.265625 -2.5625 C 6.265625 -2.875 6.207031 -3.132812 6.09375 -3.34375 C 5.976562 -3.5625 5.785156 -3.75 5.515625 -3.90625 C 5.253906 -4.0625 4.894531 -4.195312 4.4375 -4.3125 L 3.328125 -4.578125 C 2.503906 -4.773438 1.894531 -5.09375 1.5 -5.53125 C 1.113281 -5.96875 0.921875 -6.515625 0.921875 -7.171875 C 0.921875 -7.648438 1.039062 -8.070312 1.28125 -8.4375 C 1.519531 -8.8125 1.875 -9.101562 2.34375 -9.3125 C 2.8125 -9.519531 3.367188 -9.625 4.015625 -9.625 C 4.734375 -9.625 5.335938 -9.519531 5.828125 -9.3125 C 6.316406 -9.113281 6.707031 -8.8125 7 -8.40625 L 6.453125 -7.671875 L 6.296875 -7.671875 C 6.023438 -8.003906 5.703125 -8.25 5.328125 -8.40625 C 4.953125 -8.5625 4.515625 -8.640625 4.015625 -8.640625 C 3.359375 -8.640625 2.863281 -8.507812 2.53125 -8.25 C 2.195312 -8 2.03125 -7.648438 2.03125 -7.203125 C 2.03125 -6.773438 2.148438 -6.429688 2.390625 -6.171875 C 2.640625 -5.921875 3.054688 -5.726562 3.640625 -5.59375 L 4.78125 -5.328125 C 5.695312 -5.109375 6.363281 -4.773438 6.78125 -4.328125 C 7.195312 -3.878906 7.40625 -3.304688 7.40625 -2.609375 C 7.40625 -2.078125 7.28125 -1.601562 7.03125 -1.1875 C 6.789062 -0.78125 6.425781 -0.457031 5.9375 -0.21875 C 5.457031 0.0195312 4.859375 0.140625 4.140625 0.140625 Z M 4.140625 0.140625 "/></g></g></g><g fill="#000000" fill-opacity="1"><g transform="translate(756.964248, 409.122617)"><g><path d="M 4.5 -9.484375 C 5.457031 -9.484375 6.28125 -9.3125 6.96875 -8.96875 C 7.664062 -8.625 8.195312 -8.097656 8.5625 -7.390625 C 8.9375 -6.679688 9.125 -5.796875 9.125 -4.734375 C 9.125 -3.671875 8.9375 -2.785156 8.5625 -2.078125 C 8.195312 -1.378906 7.664062 -0.859375 6.96875 -0.515625 C 6.28125 -0.171875 5.457031 0 4.5 0 L 1.4375 0 L 1.4375 -9.484375 Z M 4.390625 -0.953125 C 5.179688 -0.953125 5.835938 -1.070312 6.359375 -1.3125 C 6.878906 -1.5625 7.269531 -1.960938 7.53125 -2.515625 C 7.800781 -3.078125 7.9375 -3.816406 7.9375 -4.734375 C 7.9375 -5.660156 7.800781 -6.398438 7.53125 -6.953125 C 7.269531 -7.515625 6.878906 -7.914062 6.359375 -8.15625 C 5.835938 -8.40625 5.179688 -8.53125 4.390625 -8.53125 L 2.546875 -8.53125 L 2.546875 -0.953125 Z M 4.390625 -0.953125 "/></g></g></g></svg>